<?xml version="1.0" encoding="UTF-8"?>
<svg width="35px" height="35px" viewBox="0 0 35 35" version="1.1" xmlns="http://www.w3.org/2000/svg" xmlns:xlink="http://www.w3.org/1999/xlink">
    <!-- Generator: Sketch 58 (84663) - https://sketch.com -->
    <title>American_Express_logo_(2018)</title>
    <desc>Created with Sketch.</desc>
    <g id="MVP-desktop-/-mobile-" stroke="none" stroke-width="1" fill="none" fill-rule="evenodd">
        <g id="Artboard" transform="translate(-483.000000, -152.000000)">
            <g id="American_Express_logo_(2018)" transform="translate(483.000000, 152.000000)">
                <g>
                    <path d="M34.9222222,18.9155556 L34.9222222,0.0155555556 L0,0.0155555556 L0,34.9377778 L34.9222222,34.9377778 L34.9222222,24.7488889 C34.8444444,24.7488889 34.9222222,18.9155556 34.9222222,18.9155556" id="Path" fill="#006FCF" fill-rule="nonzero"></path>
                    <path d="M30.6444444,16.9711111 L33.2888889,16.9711111 L33.2888889,10.8266667 L30.4111111,10.8266667 L30.4111111,11.6822222 L29.8666667,10.8266667 L27.3777778,10.8266667 L27.3777778,11.9155556 L26.9111111,10.8266667 L22.3222222,10.8266667 C22.1666667,10.8266667 22.0111111,10.9044444 21.8555556,10.9044444 C21.7,10.9044444 21.6222222,10.9822222 21.4666667,11.06 C21.3111111,11.1377778 21.2333333,11.1377778 21.0777778,11.2155556 L21.0777778,10.8266667 L7.93333333,10.8266667 L7.54444444,11.8377778 L7.15555556,10.8266667 L4.04444444,10.8266667 L4.04444444,11.9155556 L3.57777778,10.8266667 L1.08888889,10.8266667 L0,13.4711111 L0,16.9711111 L1.78888889,16.9711111 L2.1,16.1155556 L2.72222222,16.1155556 L3.03333333,16.9711111 L16.7222222,16.9711111 L16.7222222,16.1933333 L17.2666667,16.9711111 L21.0777778,16.9711111 L21.0777778,16.5044444 C21.1555556,16.5822222 21.3111111,16.5822222 21.3888889,16.66 C21.4666667,16.7377778 21.6222222,16.7377778 21.7,16.8155556 C21.8555556,16.8933333 22.0111111,16.8933333 22.1666667,16.8933333 L24.9666667,16.8933333 L25.2777778,16.0377778 L25.9,16.0377778 L26.2111111,16.8933333 L30.0222222,16.8933333 L30.0222222,16.1155556 L30.6444444,16.9711111 L30.6444444,16.9711111 Z M34.9222222,24.7488889 L34.9222222,18.9933333 L13.5333333,18.9933333 L12.9888889,19.7711111 L12.4444444,18.9933333 L6.22222222,18.9933333 L6.22222222,25.1377778 L12.4444444,25.1377778 L12.9888889,24.36 L13.5333333,25.1377778 L17.4222222,25.1377778 L17.4222222,23.8155556 L17.2666667,23.8155556 C17.8111111,23.8155556 18.2777778,23.7377778 18.6666667,23.5822222 L18.6666667,25.2155556 L21.4666667,25.2155556 L21.4666667,24.4377778 L22.0111111,25.2155556 L33.6,25.2155556 C34.0666667,25.06 34.5333333,24.9822222 34.9222222,24.7488889 L34.9222222,24.7488889 Z" id="Shape" fill="#FFFFFF" fill-rule="nonzero"></path>
                    <path d="M33.6,23.2711111 L31.5,23.2711111 L31.5,24.1266667 L33.5222222,24.1266667 C34.3777778,24.1266667 34.9222222,23.5822222 34.9222222,22.8044444 C34.9222222,22.0266667 34.4555556,21.6377778 33.6777778,21.6377778 L32.7444444,21.6377778 C32.5111111,21.6377778 32.3555556,21.4822222 32.3555556,21.2488889 C32.3555556,21.0155556 32.5111111,20.86 32.7444444,20.86 L34.5333333,20.86 L34.9222222,20.0044444 L32.8222222,20.0044444 C31.9666667,20.0044444 31.4222222,20.5488889 31.4222222,21.2488889 C31.4222222,22.0266667 31.8888889,22.4155556 32.6666667,22.4155556 L33.6,22.4155556 C33.8333333,22.4155556 33.9888889,22.5711111 33.9888889,22.8044444 C34.0666667,23.1155556 33.9111111,23.2711111 33.6,23.2711111 L33.6,23.2711111 Z M29.7888889,23.2711111 L27.6888889,23.2711111 L27.6888889,24.1266667 L29.7111111,24.1266667 C30.5666667,24.1266667 31.1111111,23.5822222 31.1111111,22.8044444 C31.1111111,22.0266667 30.6444444,21.6377778 29.8666667,21.6377778 L28.9333333,21.6377778 C28.7,21.6377778 28.5444444,21.4822222 28.5444444,21.2488889 C28.5444444,21.0155556 28.7,20.86 28.9333333,20.86 L30.7222222,20.86 L31.1111111,20.0044444 L29.0111111,20.0044444 C28.1555556,20.0044444 27.6111111,20.5488889 27.6111111,21.2488889 C27.6111111,22.0266667 28.0777778,22.4155556 28.8555556,22.4155556 L29.7888889,22.4155556 C30.0222222,22.4155556 30.1777778,22.5711111 30.1777778,22.8044444 C30.2555556,23.1155556 30.0222222,23.2711111 29.7888889,23.2711111 L29.7888889,23.2711111 Z M27.0666667,20.7822222 L27.0666667,19.9266667 L23.8,19.9266667 L23.8,24.0488889 L27.0666667,24.0488889 L27.0666667,23.1933333 L24.7333333,23.1933333 L24.7333333,22.3377778 L26.9888889,22.3377778 L26.9888889,21.4822222 L24.7333333,21.4822222 L24.7333333,20.7044444 L27.0666667,20.7044444 L27.0666667,20.7822222 L27.0666667,20.7822222 Z M21.7777778,20.7822222 C22.1666667,20.7822222 22.3222222,21.0155556 22.3222222,21.2488889 C22.3222222,21.4822222 22.1666667,21.7155556 21.7777778,21.7155556 L20.6111111,21.7155556 L20.6111111,20.7044444 L21.7777778,20.7822222 L21.7777778,20.7822222 Z M20.6111111,22.5711111 L21.0777778,22.5711111 L22.3222222,24.0488889 L23.4888889,24.0488889 L22.0888889,22.4933333 C22.7888889,22.3377778 23.1777778,21.8711111 23.1777778,21.2488889 C23.1777778,20.4711111 22.6333333,19.9266667 21.7777778,19.9266667 L19.6,19.9266667 L19.6,24.0488889 L20.5333333,24.0488889 L20.6111111,22.5711111 Z M18.1222222,21.3266667 C18.1222222,21.6377778 17.9666667,21.8711111 17.5777778,21.8711111 L16.3333333,21.8711111 L16.3333333,20.7822222 L17.5,20.7822222 C17.8888889,20.7822222 18.1222222,21.0155556 18.1222222,21.3266667 L18.1222222,21.3266667 Z M15.4,19.9266667 L15.4,24.0488889 L16.3333333,24.0488889 L16.3333333,22.6488889 L17.5777778,22.6488889 C18.4333333,22.6488889 19.0555556,22.1044444 19.0555556,21.2488889 C19.0555556,20.4711111 18.5111111,19.8488889 17.6555556,19.8488889 L15.4,19.9266667 L15.4,19.9266667 Z M14,24.0488889 L15.1666667,24.0488889 L13.5333333,21.9488889 L15.1666667,19.9266667 L14,19.9266667 L12.9888889,21.2488889 L11.9777778,19.9266667 L10.8111111,19.9266667 L12.4444444,21.9488889 L10.8111111,23.9711111 L11.9777778,23.9711111 L12.9888889,22.6488889 L14,24.0488889 L14,24.0488889 Z M10.5,20.7822222 L10.5,19.9266667 L7.23333333,19.9266667 L7.23333333,24.0488889 L10.5,24.0488889 L10.5,23.1933333 L8.16666667,23.1933333 L8.16666667,22.3377778 L10.4222222,22.3377778 L10.4222222,21.4822222 L8.16666667,21.4822222 L8.16666667,20.7044444 L10.5,20.7044444 L10.5,20.7822222 L10.5,20.7822222 Z M29.4,13.4711111 L31.0333333,15.96 L32.2,15.96 L32.2,11.8377778 L31.2666667,11.8377778 L31.2666667,14.56 L31.0333333,14.1711111 L29.5555556,11.8377778 L28.3111111,11.8377778 L28.3111111,15.96 L29.2444444,15.96 L29.2444444,13.16 L29.4,13.4711111 L29.4,13.4711111 Z M25.3555556,13.3933333 L25.6666667,12.5377778 L25.9777778,13.3933333 L26.3666667,14.3266667 L24.9666667,14.3266667 L25.3555556,13.3933333 Z M26.9888889,15.96 L28,15.96 L26.2111111,11.8377778 L24.9666667,11.8377778 L23.1777778,15.96 L24.1888889,15.96 L24.5777778,15.1044444 L26.6,15.1044444 L26.9888889,15.96 Z M22.6333333,15.96 L23.0222222,15.1044444 L22.7888889,15.1044444 C22.0888889,15.1044444 21.7,14.6377778 21.7,13.9377778 L21.7,13.86 C21.7,13.16 22.0888889,12.6933333 22.7888889,12.6933333 L23.8,12.6933333 L23.8,11.8377778 L22.7111111,11.8377778 C21.4666667,11.8377778 20.7666667,12.6933333 20.7666667,13.86 L20.7666667,13.9377778 C20.7666667,15.1822222 21.4666667,15.96 22.6333333,15.96 Z M19.1333333,15.96 L20.0666667,15.96 L20.0666667,11.9155556 L19.1333333,11.9155556 L19.1333333,15.96 Z M17.1111111,12.6933333 C17.5,12.6933333 17.6555556,12.9266667 17.6555556,13.16 C17.6555556,13.3933333 17.5,13.6266667 17.1111111,13.6266667 L15.9444444,13.6266667 L15.9444444,12.6155556 L17.1111111,12.6933333 L17.1111111,12.6933333 Z M15.9444444,14.4822222 L16.4111111,14.4822222 L17.6555556,15.96 L18.8222222,15.96 L17.4222222,14.4044444 C18.1222222,14.2488889 18.5111111,13.7822222 18.5111111,13.16 C18.5111111,12.3822222 17.9666667,11.8377778 17.1111111,11.8377778 L14.9333333,11.8377778 L14.9333333,15.96 L15.8666667,15.96 L15.9444444,14.4822222 Z M14.2333333,12.6933333 L14.2333333,11.8377778 L10.9666667,11.8377778 L10.9666667,15.96 L14.2333333,15.96 L14.2333333,15.1044444 L11.9,15.1044444 L11.9,14.2488889 L14.1555556,14.2488889 L14.1555556,13.3933333 L11.9,13.3933333 L11.9,12.6155556 L14.2333333,12.6155556 L14.2333333,12.6933333 L14.2333333,12.6933333 Z M7.15555556,15.96 L8.01111111,15.96 L9.17777778,12.6155556 L9.17777778,15.96 L10.1111111,15.96 L10.1111111,11.8377778 L8.55555556,11.8377778 L7.62222222,14.6377778 L6.68888889,11.8377778 L5.13333333,11.8377778 L5.13333333,15.96 L6.06666667,15.96 L6.06666667,12.6155556 L7.15555556,15.96 Z M2.1,13.3933333 L2.41111111,12.5377778 L2.72222222,13.3933333 L3.11111111,14.3266667 L1.71111111,14.3266667 L2.1,13.3933333 L2.1,13.3933333 Z M3.73333333,15.96 L4.74444444,15.96 L2.95555556,11.8377778 L1.78888889,11.8377778 L0,15.96 L1.01111111,15.96 L1.4,15.1044444 L3.42222222,15.1044444 L3.73333333,15.96 Z" id="Shape" fill="#006FCF" fill-rule="nonzero"></path>
                </g>
            </g>
        </g>
    </g>
</svg>