<?xml version="1.0" encoding="UTF-8"?>
<svg width="46px" height="30px" viewBox="0 0 46 30" version="1.1" xmlns="http://www.w3.org/2000/svg" xmlns:xlink="http://www.w3.org/1999/xlink">
    <!-- Generator: Sketch 62 (91390) - https://sketch.com -->
    <title>CB</title>
    <desc>Created with Sketch.</desc>
    <defs>
        <polygon id="path-1" points="0 0 16.1886792 0 16.1886792 13 0 13"></polygon>
        <linearGradient x1="100%" y1="50%" x2="0%" y2="50%" id="linearGradient-3">
            <stop stop-color="#0080CB" offset="0%"></stop>
            <stop stop-color="#009759" offset="100%"></stop>
        </linearGradient>
        <polygon id="path-4" points="0 0 14.2264151 0 14.2264151 5.88679245 0 5.88679245"></polygon>
        <linearGradient x1="0%" y1="0%" x2="100%" y2="0%" id="linearGradient-6">
            <stop stop-color="#007CC6" offset="0%"></stop>
            <stop stop-color="#023F82" offset="100%"></stop>
        </linearGradient>
        <linearGradient x1="0%" y1="0%" x2="100%" y2="0%" id="linearGradient-7">
            <stop stop-color="#007CC6" offset="0%"></stop>
            <stop stop-color="#023F82" offset="100%"></stop>
        </linearGradient>
    </defs>
    <g id="Page-1" stroke="none" stroke-width="1" fill="none" fill-rule="evenodd">
        <g id="Planche-marque" transform="translate(-166.000000, -160.000000)">
            <g id="CB" transform="translate(167.000000, 161.000000)">
                <path d="M6.409713,-2.58960077e-16 L37.590287,2.58960077e-16 C39.8190838,-1.50463262e-16 40.6272994,0.232064028 41.4421143,0.667831759 C42.2569291,1.10359949 42.8964005,1.74307093 43.3321682,2.55788574 C43.767936,3.37270056 44,4.18091615 44,6.409713 L44,21.590287 C44,23.8190838 43.767936,24.6272994 43.3321682,25.4421143 C42.8964005,26.2569291 42.2569291,26.8964005 41.4421143,27.3321682 C40.6272994,27.767936 39.8190838,28 37.590287,28 L6.409713,28 C4.18091615,28 3.37270056,27.767936 2.55788574,27.3321682 C1.74307093,26.8964005 1.10359949,26.2569291 0.667831759,25.4421143 C0.232064028,24.6272994 1.00308841e-16,23.8190838 -1.72640051e-16,21.590287 L1.72640051e-16,6.409713 C-1.00308841e-16,4.18091615 0.232064028,3.37270056 0.667831759,2.55788574 C1.10359949,1.74307093 1.74307093,1.10359949 2.55788574,0.667831759 C3.37270056,0.232064028 4.18091615,1.50463262e-16 6.409713,-2.58960077e-16 Z" id="Rectangle" stroke="#EEEEEE"></path>
                <g id="Group-9" transform="translate(6.000000, 8.000000)">
                    <g id="Group-3">
                        <mask id="mask-2" fill="white">
                            <use xlink:href="#path-1"></use>
                        </mask>
                        <g id="Clip-2"></g>
                        <path d="M8.07344049,5.88679245 L16.1886792,5.88679245 C16.1164178,4.31054856 15.6956014,2.74848371 14.4579478,1.70463206 C12.9836736,0.461220546 10.4013911,0 8.0939854,0 C5.69235647,0 3.03639575,0.505877301 1.55432857,1.83999785 C0.276293594,2.98921153 0,4.83828029 0,6.49965112 C0,8.23986904 0.54054362,10.264076 1.9269707,11.430036 C3.40124498,12.6706564 5.7901219,13 8.0939854,13 C10.3319635,13 12.7562627,12.628093 14.2220356,11.4502711 C15.6835579,10.2738447 16.1886792,8.41519156 16.1886792,6.62264151 L8.07344049,6.62264151 L8.07344049,5.88679245 Z" id="Fill-1" fill="url(#linearGradient-3)" mask="url(#mask-2)"></path>
                    </g>
                    <g id="Group-6" transform="translate(16.924528, 6.377358)">
                        <mask id="mask-5" fill="white">
                            <use xlink:href="#path-4"></use>
                        </mask>
                        <g id="Clip-5"></g>
                        <path d="M0,0.245283019 L0,5.88679245 L11.2664143,5.88679245 L11.2664143,5.87886856 C12.9149506,5.80227092 14.2264151,4.53576863 14.2264151,2.98070456 C14.2264151,1.42498016 12.9149506,0.322540979 11.2664143,0.245283019 L0,0.245283019 Z" id="Fill-4" fill="url(#linearGradient-6)" mask="url(#mask-5)"></path>
                    </g>
                    <path d="M28.0316159,0.0131214315 C27.9207498,0.0131214315 27.7844621,-0.00848883719 27.6771268,0.00375698172 L16.9245283,0.00375698172 L16.9245283,5.88679245 L28.2519357,5.88679245 C29.7376826,5.7564105 30.9056604,4.49220978 30.9056604,2.9441942 C30.9056604,1.30901721 29.633878,0.0131214315 28.0316159,0.0131214315 Z" id="Fill-7" fill="url(#linearGradient-7)"></path>
                </g>
            </g>
        </g>
    </g>
</svg>