<?xml version="1.0" encoding="UTF-8"?>
<svg id="Calque_1" data-name="Calque 1" xmlns="http://www.w3.org/2000/svg" viewBox="0 0 227.77 230.41">
  <defs>
    <style>
      .cls-1, .cls-2, .cls-3, .cls-4, .cls-5, .cls-6, .cls-7, .cls-8, .cls-9, .cls-10 {
        stroke-miterlimit: 10;
      }

      .cls-1, .cls-5 {
        stroke: #4b824b;
      }

      .cls-1, .cls-8, .cls-9, .cls-10 {
        fill: none;
      }

      .cls-1, .cls-8, .cls-10 {
        stroke-linecap: round;
      }

      .cls-2 {
        fill: #c9092e;
        stroke: #7f0000;
      }

      .cls-3 {
        fill: #b20d40;
        stroke: #7c002d;
      }

      .cls-4 {
        fill: #91c987;
      }

      .cls-4, .cls-8, .cls-9 {
        stroke: #006b05;
      }

      .cls-5 {
        fill: #b0e2a8;
      }

      .cls-6 {
        fill: #84b77b;
      }

      .cls-6, .cls-10 {
        stroke: #267526;
      }

      .cls-7 {
        fill: #d3245e;
        stroke: #890035;
      }
    </style>
  </defs>
  <path class="cls-9" d="m159.87,103.26c2.82,10.31,7.75,26.81,7.5,32.61-.58,2.86-9.1,1.63-13.36,7.77-2.26,2.21-8.02.74-10.02-4.41-2-5.15-12.53-3.19-17.29.98-1.23,1.44-12.33-3.95-.72-13.64.52-.43,1.21-.65,1.85-.78,5.53-1.14,20.74,2.09,19.58,19.36-.12,1.8-.62,3.56-1.45,5.19-1.84,3.6-3.66,9.45-.72,10.48,3.42,1.2,12.08.76,4.62,10.73-.52.7-.77,1.56-.66,2.4.27,2.07,1.1,4.48-4.62,6.54-1.52.55-2.66,1.78-2.95,3.25-.49,2.45,0,6.11,1.28,10.57.26.89.22,1.84-.1,2.71-1.3,3.45-5.55,6.13-23.38,5.49-4.26.49-24.81,12.02,5.01,26.24,3.76.49,26.81,11.53,55.63-45.37,3.26-5.64,68.41-95.89,22.05-114.53-3.26-1.47-30.4-1.47-34.75,9.56,3.93-1.72,10.81-5.54,34.5-4.41,23.69,1.12,25.31-2.45,25.31-2.45,0,0,2.91,22.59-23.65,6.89-2.51-1.72-28.33-7.92-36.43,8.02,5.18.74,34.27,11.09,48.81-12.46,1.75-2.45,11.28-13.24,11.28-32.13-2.3-.17-43.8-10.48-62.48,9.53"/>
  <path class="cls-9" d="m114.53,177.45c5.2,1.11,12.57,1.66,16.93-2.54,1.58-1.31,7.88-1.35,13.75.78.36.13.75.15,1.12.05,3.04-.84,5.46-2.12,11.76.41,2.09.84,4.52.82,6.5-.21,3.16-1.63,4.95-5.55-4.82-13.78-1.62-1.3-6.26-.74-10.52.86-3.63-1.1-7.02-2.82-14.03,0-3.33,1.34-8.6,4.18-13.66,6.84"/>
  <path class="cls-9" d="m113.03,183.25c4.1,6.15,10.53,13.9,17.05,14.34,10.9.74,18.79,1.23,23.18-1.59,4.1-2.63,11.44-6.27,11.99-17.74.06-1.16-1.18-2.01-2.38-1.63-2.86.91-8.5,2.26-18.04,2.94-.49.03-12.35-.18-17.26-1.2-3.71-.77-6.54.7-13.06-.87"/>
  <path class="cls-9" d="m128.46,138.92s7.12,4.1,12.97-2.17"/>
  <path class="cls-9" d="m156.38,141.18s5.52,1.03,8.77-3.57"/>
  <path class="cls-4" d="m48.43,22.71c-.49-2.84,1.28-4.17,2.56-5.37.57-2.58,1.92-3.32,3.67-4.13,2.9-4.07,4.8-5.4,5.8-5.58,1.41-1.57,3.26-2.73,5.39-3.53,8.01-4.79,10.73-3.58,11.75-3.11.11.05.13.17.08.28-.65,1.25,1.07,3.63,1.27,5.26,1.07,1.68,1.47,3.22,1.5,5.69,2.47,2.38,2.4,6,2.59,7.14,3.11,4.88,1.36,7.45,1.18,8.72.19.79.31,1.53.36,2.22,0,0-.11,14.45-7.36,21.42"/>
  <path class="cls-8" d="m66.5,32.23c.37-1.86,1.06-3.91,2.3-5.67,3.28-4.66,3.37-9.49,2.59-12.94s.47-5.26.47-5.26"/>
  <path class="cls-5" d="m35.85,71.79l-11.81-15.06c-.96-1.91-1.44-3.87-.57-5.45.5-.92.56-2.01.08-2.94-1.06-2.07-2.45-5.3-1.8-8.7.13-.7.05-1.41-.25-2.05-.99-2.13-1.2-4.79-.81-8.81s-.07-7.95-.21-9.01c-.02-.13.1-.23.22-.19,1.04.35,4.99,1.53,8.25.3.75-.28,1.55-.44,2.35-.45,2.14-.03,4.97.4,6.19.78.59.18,1.18.32,1.79.39,2,.25,5.69.71,7.81,1.69.83.38,1.74.54,2.65.48,2.04-.13,4.93-.1,7.86,2.84.34.35.78.59,1.25.7,1.82.42,5.39,2.02,10.5,9.61,0,0,7.29,15.62,7.29,24.76"/>
  <path class="cls-1" d="m58.72,58.11c-2.38-1.21-5.73-3.76-8.25-9.05-4.37-9.15-7.88-5.35-13-9.2s-6.24-12.02-10.11-13.98"/>
  <path class="cls-6" d="m40.19,159.53c-5.45,1.43-8.6,1.46-10.22,1.01-.51-.14-1.03-.21-1.55-.14-2.86.37-5.82.07-8.77-.76-.58-.16-1.17-.3-1.77-.38-14.08-1.93-16.47-5.98-17.33-7.64-.11-.2-.02-.44.19-.54,1.94-.95,2.21-5.26,3.4-7.64.13-.26.22-.53.26-.82.34-2.78,1.26-4.96,3.22-7.68.33-.45.48-1.01.45-1.57-.27-4.43,2.19-8.16,3.44-10.12.32-.49.53-1.05.6-1.63.34-2.66,1-4.65,1.8-6.16,0,0,32.36-5.24,52.27,2.35"/>
  <path class="cls-10" d="m44.73,125.1c-2.46,1.99-5.47,5-7.43,8.97-3.8,7.69-7.83,7.35-11.17,9.37s-9.03,9.55-12.13,8.94"/>
  <path class="cls-1" d="m40.86,26.34c-.35,1.38.17,7.13,1.32,8.69"/>
  <path class="cls-1" d="m57.08,32.9s2.07,10.87.46,14.09"/>
  <path class="cls-1" d="m24.41,36.06c1.27,1.15,6.79,2.19,6.79,2.19"/>
  <path class="cls-1" d="m42.19,47.74c-2.59.46-6.5-1.09-8.92,0"/>
  <path class="cls-8" d="m58.13,16.9s2.81,5.44,6.52,6.73"/>
  <path class="cls-8" d="m78.54,14.49c-1.64.69-3.02,1.73-3.11,2.42"/>
  <path class="cls-8" d="m78.54,28.14s-7.68,2.72-7.51,5.02"/>
  <path class="cls-6" d="m7.75,145.07s6.63,2.3,9.8,0"/>
  <path class="cls-10" d="m31.33,144.72c1.36,1.16.11,8.46,1.94,9.99"/>
  <path class="cls-10" d="m28.82,132.77c-4.52.8-7.4-3.94-12-2.2"/>
  <path class="cls-10" d="m43.67,129.29c.99,2.43,6.14,5.65,4.89,7.95"/>
  <path class="cls-3" d="m97.81,190.32s-1.04,3.55-.44,8.63c-.3.94-3.33,2.78-4.84,4.38-.27.28-.7.34-1.05.13-1.01-.59-2.83-1.88-9.83-3.12-1.49-.38-5.83-4.65-7.35-7.49"/>
  <path class="cls-3" d="m52.05,170.46s-6.23-.6-8.84-3.57-3.57-11.23-4.85-13.07c-5.02-3.42-1.65-8.6-1.54-10.31.32-3.75,4.17-8.82,5.64-10.48.24-.27.63-.34.96-.18,2.52,1.19,5.46.69,5.46.69l6.74.14"/>
  <path class="cls-3" d="m112.4,136.02c3.63,2,5.04,3.65,7.59,9.74,2.4,5.74,7.1,7.01,8.41,8.19.12.11.12.3.01.41-4.28,4.17-5.47,9.8-5.95,12.04-2.18,11.76-9.63,11.32-9.63,11.32l-10.04-3.95"/>
  <path class="cls-3" d="m60.47,182.71c.63,4.37,6.27,10.16,8.25,11.51.23.15.52.18.75.06,6.55-3.34,12.45-.16,17.21.22s8.02-4.24,8.02-4.24l1.35-5.58"/>
  <path class="cls-3" d="m92.79,116.96s-.43-4.42-10.07-6.39c-9.26-1.89-12.09-4.23-15.4-7.63-.22-.22-.58-.22-.78,0-1.58,1.82-4.61,5.78-6.61,11.91-.92,2.6-6.1,8.48-12.83,10.55-.2.06-.34.24-.36.45-.1,1.98,3.73,9.41,3.11,15.93"/>
  <path class="cls-3" d="m110.65,157.67s4.72,3.69,2.64,14.87c-1.24,6.67.54,13.49-.59,14.88-2,2.47-3.02-.32-15.52,3.06-.65.18-1.35.16-2-.06-3.24-1.07-13.5-4.38-19.12-5.53-1.24-.25-2.33-1.05-2.94-2.16-1.63-2.93-1.93-7.71-3.47-8.71"/>
  <path class="cls-3" d="m53.18,138.78s-4.2,1.46-6.89,11.81c-.57,1.91-1.74,3.63-1.62,4.59s3.83,1.37,4.84,3.92,2.91,6.67,2.47,13.23c-.44,6.55,18.68,19.5,26.69,13.16"/>
  <path class="cls-3" d="m110.31,147.33s4.57-3.11,2.84-9.77c-.35-1.14-3.9-6.68-4.97-10.71s-1.98-9.66-5-11.02-4.6,1.53-9.65,1.19-13.67-1.85-16.15.67"/>
  <path class="cls-3" d="m90.06,124.5s-.37-2.83-2.51-4.99c-2.33-1.1-5.94,1.6-21.37-7-1.35-.37-3.92,2.8-6.38,10.02-.55,1.42-2.34,3.72-6.25,5.59-1.1,1.27-1.57,5.28-.29,9.7.12,1.24-2.09,9.15-.5,12.64,1.59,3.5,9.09,6.4,10.38,10"/>
  <path class="cls-3" d="m99.59,167.82s3.38,8.5.8,9.47c-2.47.84-8.93-4.37-18.41-.11-4.07.31-13.55-3.34-15.24-4.85s-3.08-9.61-4.32-15.3c-.86-5.23-4.45-7.27-6-12.85s5.83-9.24,7.96-13.63c.88-1.73,1.69-6.26,3.27-6.35s5.04,4.22,10.39,4.38"/>
  <path class="cls-3" d="m101.38,134.26s5.64-.51,6.57,3.7,2.55,13.62,6.48,15.73c.09.05.1.16.04.23-1.72,1.67-3.82,3.74-3.82,3.74,0,0-1.15,9.75-11.06,10.15-4.08-.33-8.89.7-11.7,3.65-.09.09-.23.11-.33.03-1.09-.76-3.8-3.73-12.18-4.57-3.66-.38-4.16-1.71-4.16-1.71,0,0-2.26-6-3.55-13.38-.55-3.39-2.28-8.75-1.09-10.31s3.48-2.96,6.07-3.67"/>
  <path class="cls-3" d="m101.46,151.15s3.52,6.73-8.23,13.95c-.18.11-.41.12-.6.02-1.55-.8-4.67-3.49-11.39-1.85-.21.05-.44,0-.6-.16-2.43-2.27-15.22-18.29-7.38-23.52"/>
  <path class="cls-3" d="m71.47,138.24s7.99-11.49,9.6-14.72c.16-.32.51-.5.88-.45,2.04.28,7.07,2.24,11.1,1.06.32-.1.68-.07.99.09.79.4,2.15,1.54,2.55,4.63.03.23.18.44.4.54,1.09.51,4.33,2.12,4.3,3.11-.14,3.94,2.78,11.48,3.03,13.46s-4.11,4.29-4.79,10.08c-.02.2-.16.37-.35.44-2.34.91-8.32,3.16-9.99,3.31s-6.61.26-7.8-1.46-2.77-7.75-3.38-8.73c-.57-.91-1.12-3.01-2.77-3.31-.28-.05-.52-.24-.59-.51-.4-1.39-.24-3.37-2.02-7.99.31-.72,2.9-1.68,3.12-1.61"/>
  <path class="cls-3" d="m92.31,132.07s-1.19-2.33-1.99-5.04c-.04-.14-.17-.25-.32-.26-1.05-.1-4.3.17-6.33-.51-.19-.06-.4-.01-.52.14-1,1.22-3.18,5.16-7.3,9.06-.51,1.74.55,8.29,4.26,13.24.48.61,3.54,3.95,4.71,5.47s5.42,3.67,9.65,1.12"/>
  <path class="cls-3" d="m96.2,145.03s4.4,2.27,1.08,8.03c-.07.12-.23.15-.35.07-.92-.65-2.69-2.2-3.92-1.26-1.33,1.02-3.59,2.98-5.38,2.83s-3.39-1.27-3.39-1.27"/>
  <path class="cls-3" d="m86.51,132.36s-3.75-3.97-5.92-.1c-.35.8-1.55,2.43-3.13,3.19-.34.16-.57.49-.61.87-.18,1.96.32,6.93,5.51,10.71"/>
  <path class="cls-3" d="m84.77,134.51s6.93-4.05,12.33-1.84c1.23.56,3.56,1.91.03,10.71-.32.88-4.12,7.89-9.76,4.89"/>
  <path class="cls-3" d="m93.68,137.79s3.3.51,1.68,5.35c-.5,1.11-2.89,3.85-8.21,2.72-.85-.2-3-.65-4.19-.88-.35-.07-.66-.31-.8-.64-.52-1.22-1.39-3.86-2.17-4.28-.94-.51-2.19-2.44-1.42-3.11s1.23.21,1.46-.83.86-1.61,1.85-1.73"/>
  <path class="cls-3" d="m88.92,154.51s-1.84-4.19-4.72-6.32"/>
  <path class="cls-3" d="m87.34,151.67s-3.33-2.55-5.83-1.83"/>
  <path class="cls-3" d="m92.51,146.21s-1.5,2.1-7.94,1.52"/>
  <path class="cls-3" d="m85.04,135.61s-6.82,1.35.24,6.6"/>
  <path class="cls-3" d="m92.32,140.79s.85-4.38-.38-5.01c-1.11-.56-2.55-1.05-3.51-1.6-.23-.13-.51-.14-.74-.03-.99.5-3.06,2.16-2.85,4.78"/>
  <path class="cls-3" d="m91.23,143.14s1.77-2.5-3.17-5.86c-.13-.09-.29-.1-.43-.04-.96.44-3.63,2.62-.61,6.39"/>
  <path class="cls-3" d="m89.82,142.75s.52-1.52-2.37-2.67c-.43.3-1.76,1.6-.02,3.37"/>
  <path class="cls-3" d="m90.49,145.71s-3.94-2.58-2.75-.39"/>
  <path class="cls-3" d="m86.24,144.72c-.19-.19-.46-1.02-1.41-1.53"/>
  <path class="cls-2" d="m67.75,91.8s-1.97,4.27-6.71,8.59c-.5,1.14.74,5.49.8,8.31.01.5.36.92.85,1.02,1.4.3,4.12.64,11.51,5.43,1.67.91,9.13.56,12.85-.86"/>
  <path class="cls-2" d="m125.71,111.97s6.16,4.75,10.98,4.15,12.49-7.65,15.17-8.29c7.38,1.04,8.58-6.78,9.89-8.5,2.8-3.85,3.47-11.96,3.5-14.79,0-.46-.29-.86-.73-1-3.27-1.02-5.54-4.01-5.54-4.01l-6.25-5.63"/>
  <path class="cls-2" d="m99.18,27.65c-4.94-1.2-7.58-.83-14.92,2.79-6.91,3.41-12.23.62-14.39.61-.2,0-.36.18-.34.38.46,7.62-3.09,14-4.5,16.54-7.7,13.06-.57,19-.57,19l12.38,4.82"/>
  <path class="cls-2" d="m107.97,116.45c-4.17,3.61-14.07,4.32-16.98,3.91-.33-.05-.61-.27-.73-.59-3.21-8.78-11.19-10.79-15.83-14.48s-3.81-10.88-3.81-10.88l3.37-6.47"/>
  <path class="cls-2" d="m132.7,26.25s4.03-3.84,14.42,2.52,14.47,6.3,20.29,5.9c.38-.03.71.28.7.67-.06,3.08-.56,9.44-3.79,16.99-1.3,3.26-1.43,13.28,2.98,21.01.13.23.12.52-.05.73-1.54,1.97-11.14,5.77-15.95,12.5"/>
  <path class="cls-2" d="m82.95,49.75s-7.34-.52-14.65,11.9c-4.36,7.41-11.6,12.39-11.72,14.67-.21,4.07,3,2.28,11.59,16.17.45.72,1.1,1.3,1.87,1.65,3.83,1.75,15.89,7.36,21.95,11.06,1.34.82,2.98.99,4.45.46,3.9-1.39,8.11-5.69,10.33-5.32"/>
  <path class="cls-2" d="m150.76,80.86s2.62,4.98-3.46,17.13c-1.05,2.31-1.41,4.94-2.31,5.75s-4.61-1.96-7.63-.41-8.14,3.87-13.14,10.48c-5,6.61-33.04,2.61-35.11-10.27"/>
  <path class="cls-2" d="m91.77,40.2s-1.59-6.86,5.46-11.72c1.26-.79,9.05-3.03,13.34-5.95s9.75-7.51,13.62-6.23,2.93,5.39,7.8,9.37,13.95,9.91,14.14,14.43"/>
  <path class="cls-2" d="m128.98,35.76s2.67-2.37,6.4-2.6c3.02.95,4.08,6.59,25.19,11.58,1.53.8,1.25,6.01-2.44,14.99-.67,1.83-.94,5.54,1.08,10.66-.04,2.15-2.91,6.36-7.72,9.48-1.13,1.09-5.63,10.49-9.96,12.46s-13.54-1.67-17.67.65"/>
  <path class="cls-2" d="m84.65,68.86s-10.07,5.2-8.52,8.33c1.56,2.91,11.72,3.46,16.83,15.61,3.45,3.77,15.07,8.4,17.86,8.4s10.71-6.52,16.52-10.87c5.09-4.24,10.03-3.12,16.03-7.1s2.31-13.78,3.98-19.78c.63-2.4,3.61-7.4,2.26-8.84s-8.06-.29-13.05-4.71"/>
  <path class="cls-2" d="m110.65,35.39s-4.71-5.3-9.03-2.09-13.53,10.78-18.85,9.44c-.12-.03-.23.07-.22.19.19,3.05.39,6.82.39,6.82,0,0-6.98,10.27,1.7,19.11,3.98,3.17,7.51,8.26,7.63,13.47,0,.16.12.3.28.32,1.62.21,6.52-.31,14.84,6.05,3.64,2.77,5.19,1.92,5.19,1.92,0,0,6.99-3.78,14.24-9.7,3.29-2.76,9.28-6.38,9.48-8.88s-.72-5.79-2.5-8.68"/>
  <path class="cls-2" d="m96.68,51.39s-8.74,3.4-4,20.31c.07.26.28.46.54.53,2.07.56,7.12.67,11.88,7.97.15.23.4.37.67.36,4.08-.08,28.9-4.42,26.08-16.09"/>
  <path class="cls-2" d="m134.57,64.72s2.19-17.76,3.39-22.22c.12-.44-.05-.92-.43-1.18-2.09-1.48-8.27-3.9-10.96-8.47-.22-.37-.56-.65-.97-.76-1.05-.29-3.22-.37-6.13,2.23-.22.2-.53.26-.81.18-1.41-.44-5.68-1.68-6.47-.7-3.12,3.86-11.98,8.55-13.84,10.23s.21,7.59-3.94,13.68c-.14.21-.16.49-.05.72,1.37,2.87,4.96,10.12,6.36,11.68s5.8,5.9,8.3,5.28,8.9-5.01,10.26-5.42c1.26-.38,3.5-1.9,5.24-.78.29.19.66.21.96.02,1.51-.98,2.99-3,8.42-5.88.32-.95-1.25-4.08-1.51-4.2"/>
  <path class="cls-2" d="m120.71,41.05s3-1.2,5.96-3.1c.16-.1.36-.09.5.02,1.04.8,3.77,3.84,6.17,4.92.23.1.37.33.36.58-.09,2.02-1.35,7.63-.82,14.86-.97,2.1-7.33,7.42-14.77,8.96-.94.17-6.47.73-8.78,1.18s-7.95-1.14-9.7-7.18"/>
  <path class="cls-2" d="m106.49,50.06s-5.88-1.6-7.59,6.72c-.04.18.09.35.26.37,1.37.17,4.26.2,4.6,2.15.37,2.12.81,5.9,2.56,7.28s4.13,1.69,4.13,1.69"/>
  <path class="cls-2" d="m125.55,49.81s-2.97-9.78-9.7-12.28c-1.58-.51-4.81-1.22-8.85,10.17-.43,1.11-2.75,11.03,4.85,12.99"/>
  <path class="cls-2" d="m125.74,46.27s6.68-.57,5.47,4.96c-.35,1.06-.59,3.63.22,5.71.18.45.12.96-.17,1.35-1.45,2.01-5.99,6.33-13.83,5.49"/>
  <path class="cls-2" d="m114.75,45.31s-3.42-2.33-5.93,3.66c-.45,1.48-.54,6.14,5.23,9.59.93.54,3.26,1.95,4.54,2.75.38.24.85.27,1.25.07,1.48-.71,4.44-2.48,5.49-2.22,1.27.32,3.99-.45,3.85-1.75s-1.3-.85-.64-2.04.55-2.27-.26-3.22"/>
  <path class="cls-2" d="m124.4,50.63s5.09,7.11-5.65,6.08"/>
  <path class="cls-2" d="m105.31,65.29s5.12-2.42,9.5-1.98"/>
  <path class="cls-2" d="m109.08,63.95s5.13.41,6.8,3.24"/>
  <path class="cls-2" d="m108.88,54.34s-.36,3.27,5.97,8.23"/>
  <path class="cls-2" d="m113.52,49.33s2.83-4.9,4.47-4.44c1.47.42,3.18,1.18,4.51,1.47.32.07.58.3.7.61.49,1.32,1.01,4.66-1.34,6.99"/>
  <path class="cls-2" d="m112.58,52.51s.45-3.89,7.71-2.88c.19.03.35.15.42.33.5,1.24,1.15,5.59-4.7,6.6"/>
  <path class="cls-2" d="m114.18,53.34s.78-1.89,4.35-.52c.14.65.28,3.02-2.76,3.22"/>
  <path class="cls-2" d="m111.13,55.58s5.71.91,2.83,1.98"/>
  <path class="cls-2" d="m115.81,58.27c.32-.02,1.26-.58,2.54-.26"/>
  <path class="cls-7" d="m47.15,124.22s2.41,2.01,4.37,5.87c.65.52,3.66.4,5.48.82.32.07.65-.09.8-.4.43-.89,1.12-2.64,5.47-6.79.87-.96,1.93-6,1.66-8.71"/>
  <path class="cls-7" d="m70.08,88.87s4.11-3.33,4.55-6.64-2.77-9.57-2.73-11.46c1.93-4.75-2.89-6.83-3.77-7.98-1.99-2.49-7.1-4.26-8.91-4.74-.29-.08-.6.05-.77.32-1.22,2.02-3.53,3.04-3.53,3.04l-4.69,3.25"/>
  <path class="cls-7" d="m11.29,92.81c-1.62,3.1-1.84,4.92-.77,10.4,1.01,5.16-1.7,8.25-2.08,9.7-.03.13.05.27.18.29,4.98.94,8.48,4.34,9.87,5.69,7.08,7.26,12.12,3.48,12.12,3.48l5.23-7.47"/>
  <path class="cls-7" d="m69.91,101.43c1.61,3.37.36,10.08-.4,11.96-.09.21-.28.37-.51.39-6.2.71-8.86,5.7-12.03,8.19-3.23,2.54-7.65.76-7.65.76l-3.58-3.3"/>
  <path class="cls-7" d="m16.14,70.23s-1.78-3.31,4.09-9.2,6.54-8.62,7.28-12.56c.05-.26.3-.43.55-.36,1.97.54,5.98,1.91,10.28,5.3,1.87,1.4,8.29,3.12,14.02,1.43.17-.05.36,0,.46.15,1,1.35,1.8,8.37,5.31,12.67"/>
  <path class="cls-7" d="m22.72,107.23s-1.59,4.81,5.14,11.7c4.02,4.11,5.98,9.75,7.42,10.2,2.58.81,1.98-1.63,12.39-5.09.54-.18,1.02-.52,1.39-.98,1.79-2.27,7.46-9.39,10.89-12.83.76-.76,1.15-1.82,1.06-2.89-.23-2.83-2.27-6.33-1.65-7.75"/>
  <path class="cls-7" d="m54.37,67.1s3.65-.93,10.42,5.1c1.3,1.08,2.94,1.74,3.3,2.48s-2.06,2.76-1.57,5.02,1.09,6.06,4.48,10.47-4,22.45-12.63,21.73"/>
  <path class="cls-7" d="m18.09,99.79s-4.69-.06-6.6-5.55c-.29-.97-.39-6.53-1.54-9.86s-3.15-7.73-1.67-10.09,3.97-1.08,7.37-3.67,8.77-7.69,11.71-7.07"/>
  <path class="cls-7" d="m21.62,74.27s-1.07-2.16-.58-4.69c1.13-1.86,4.94-1.65,11.78-14.91.78-.89,4.08.14,9.22,4.07,1.06.74,3.4,1.53,7.04,1.02,1.37.38,3.59,2.98,4.77,6.69.5.93,5.78,5.46,6.3,8.67s-3.4,8.75-2.61,11.89"/>
  <path class="cls-7" d="m35.3,109.21s1.62,7.56,3.89,7.04c2.14-.57,4.24-7.25,12.93-8.67,3.01-1.68,7.99-8.68,8.47-10.53s-2.36-8.2-4.16-12.79c-1.86-4.08-.28-7.2-1.81-11.85s-8.47-3.78-12.04-5.88c-1.44-.81-4.14-3.61-5.3-2.94s-1.57,5.33-5.27,7.93"/>
  <path class="cls-7" d="m18.24,86.42s-4.22,2.28-2.89,5.68,4.61,10.78,2.84,14.1c-.04.07,0,.16.08.18,1.99.37,4.46.85,4.46.85,0,0,5.41,6.33,12.58,1.98,2.72-2.14,6.6-3.66,9.97-2.89.1.02.21-.03.25-.13.41-1.04.92-4.4,6.44-8.91,2.41-1.98,2.13-3.15,2.13-3.15,0,0-1.23-5.28-3.8-11.08-1.21-2.65-2.51-7.22-4.08-7.77s-3.85-.46-6.01.25"/>
  <path class="cls-7" d="m26.13,98.35s.69,6.38,12.37,5.98c.18,0,.34-.11.43-.27.71-1.29,1.65-4.64,7.17-6.62.17-.06.3-.21.35-.39.65-2.73,2.12-19.98-5.87-20.01"/>
  <path class="cls-7" d="m41.21,75.26s-11.05-4.36-13.71-5.88c-.26-.15-.6-.12-.83.09-1.31,1.15-3.93,4.88-7.33,5.93-.27.08-.51.27-.66.52-.37.66-.79,2.09.38,4.45.09.18.08.39-.03.57-.53.87-2.06,3.51-1.56,4.2,1.95,2.71,3.44,9.38,4.2,10.89s4.92,1.1,8.12,4.86c.11.13.29.19.45.15,2.08-.45,7.36-1.66,8.6-2.34s4.79-2.9,4.82-4.67-1.69-6.75-1.72-7.72c-.03-.9-.62-2.64.4-3.62.17-.16.25-.41.18-.63-.37-1.17-1.42-2.48-2.34-6.57-.56-.37-2.84.17-2.96.32"/>
  <path class="cls-7" d="m23.6,80.64s-.26-2.19-.97-4.48c-.04-.12,0-.25.1-.33.69-.56,3.12-1.89,4.22-3.31.1-.14.28-.19.43-.15,1.28.39,4.67,2.15,9.41,2.96,1.18.99,3.51,6.1,3.22,11.31-.05.65-.64,4.43-.75,6.05s-2.1,5.11-6.28,5.3"/>
  <path class="cls-7" d="m26.96,91.59s-2.04,3.66,3.02,6.15c.11.05.24,0,.28-.12.34-.89.86-2.8,2.17-2.71,1.42.1,3.93.42,5.12-.52s1.79-2.48,1.79-2.48"/>
  <path class="cls-7" d="m30.07,78.84s-6.8.38-9.57,4.46c-.6.97-1.61,3.01,5.02,7.56.64.47,6.62,3.63,9.19-1.12"/>
  <path class="cls-7" d="m27.83,78.14s.78-4.55,4.13-2.84c.62.41,2.23.99,3.71.78.32-.04.64.08.84.33,1.05,1.29,3.04,5.03,1.16,10.12"/>
  <path class="cls-7" d="m25.32,85.31s-2.09,1.9,1.34,4.55c.87.54,3.85,1.36,7.07-1.92.51-.53,1.81-1.86,2.55-2.58.22-.21.32-.52.26-.82-.2-1.1-.83-3.37-.48-4.02.42-.79.39-2.73-.46-2.85s-.77.72-1.42.1-1.36-.74-2.12-.35"/>
  <path class="cls-7" d="m30.4,79.74s5.45-2.23,2.94,4.76"/>
  <path class="cls-7" d="m36.56,94.86s-.68-3.81.36-6.65"/>
  <path class="cls-7" d="m36.34,92.13s1.14-3.35,3.25-4.01"/>
  <path class="cls-7" d="m30.12,90.69s2.04.78,6.32-2.64"/>
  <path class="cls-7" d="m27.7,86.79s-2.67-2.69-2.09-3.7c.52-.91,1.31-1.93,1.72-2.76.1-.2.29-.34.51-.36.94-.11,3.17.09,4.27,2.04"/>
  <path class="cls-7" d="m29.58,87.93s-2.43-.93-.53-5.61c.05-.12.16-.21.28-.23.88-.13,3.79.15,3.44,4.21"/>
  <path class="cls-7" d="m30.39,87s-1.08-.83.41-2.99c.44.01,1.99.31,1.6,2.36"/>
  <path class="cls-7" d="m31.31,89.4s1.57-3.66,1.76-1.56"/>
  <path class="cls-7" d="m33.84,86.71c.04-.22-.15-.94.27-1.74"/>
</svg>