<?xml version="1.0" encoding="UTF-8"?>
<svg id="Calque_1" data-name="Calque 1" xmlns="http://www.w3.org/2000/svg" viewBox="0 0 454.04 225.83">
  <defs>
    <style>
      .cls-1 {
        fill: #006b05;
        font-family: LindseySignature, 'Lindsey Signature';
        font-size: 121.55px;
      }

      .cls-2, .cls-3, .cls-4, .cls-5, .cls-6, .cls-7, .cls-8, .cls-9, .cls-10, .cls-11 {
        stroke-miterlimit: 10;
      }

      .cls-2, .cls-6 {
        stroke: #4b824b;
      }

      .cls-2, .cls-9, .cls-10, .cls-11 {
        fill: none;
      }

      .cls-2, .cls-9, .cls-11 {
        stroke-linecap: round;
      }

      .cls-3 {
        fill: #c9092e;
        stroke: #7f0000;
      }

      .cls-4 {
        fill: #b20d40;
        stroke: #7c002d;
      }

      .cls-5 {
        fill: #91c987;
      }

      .cls-5, .cls-9, .cls-10 {
        stroke: #006b05;
      }

      .cls-6 {
        fill: #b0e2a8;
      }

      .cls-7 {
        fill: #84b77b;
      }

      .cls-7, .cls-11 {
        stroke: #267526;
      }

      .cls-8 {
        fill: #d3245e;
        stroke: #890035;
      }

      .cls-12 {
        letter-spacing: 0em;
      }

      .cls-13 {
        letter-spacing: 0em;
      }
    </style>
  </defs>
  <path class="cls-10" d="m129.65,83.77c2.29,8.36,6.28,21.72,6.08,26.43-.47,2.32-7.38,1.32-10.83,6.29-1.83,1.79-6.5.6-8.12-3.58-1.62-4.17-10.15-2.58-14.01.79-1,1.17-10-3.2-.58-11.06.42-.35.98-.53,1.5-.64,4.48-.92,16.8,1.7,15.86,15.69-.1,1.46-.5,2.88-1.18,4.2-1.49,2.92-2.96,7.66-.58,8.49,2.77.97,9.79.62,3.75,8.69-.42.57-.62,1.26-.53,1.95.22,1.67.89,3.63-3.75,5.3-1.23.44-2.15,1.44-2.39,2.64-.39,1.99,0,4.95,1.04,8.56.21.72.18,1.49-.08,2.19-1.06,2.79-4.49,4.97-18.94,4.45-3.45.4-20.1,9.74,4.06,21.26,3.05.4,21.73,9.34,45.08-36.76,2.64-4.57,55.43-77.7,17.87-92.81-2.64-1.19-24.64-1.19-28.16,7.75,3.18-1.39,8.76-4.49,27.95-3.58s20.51-1.99,20.51-1.99c0,0,2.36,18.3-19.17,5.58-2.03-1.39-22.96-6.42-29.52,6.5,4.2.6,27.77,8.98,39.55-10.09,1.42-1.99,9.14-10.73,9.14-26.03-1.86-.14-35.49-8.49-50.63,7.72"/>
  <path class="cls-10" d="m92.9,143.89c4.21.9,10.19,1.34,13.72-2.06,1.28-1.06,6.39-1.09,11.14.63.29.11.61.12.91.04,2.47-.68,4.43-1.72,9.53.33,1.69.68,3.66.66,5.27-.17,2.56-1.32,4.01-4.5-3.9-11.17-1.31-1.05-5.08-.6-8.53.7-2.94-.89-5.69-2.29-11.37,0-2.69,1.08-6.97,3.39-11.07,5.54"/>
  <path class="cls-10" d="m91.69,148.59c3.33,4.98,8.53,11.27,13.82,11.62,8.83.6,15.23.99,18.78-1.29,3.32-2.14,9.27-5.08,9.72-14.37.05-.94-.96-1.63-1.93-1.32-2.32.73-6.89,1.83-14.61,2.38-.39.03-10.01-.14-13.99-.97-3.01-.63-5.3.57-10.58-.71"/>
  <path class="cls-10" d="m104.19,112.67s5.77,3.32,10.51-1.76"/>
  <path class="cls-10" d="m126.82,114.5s4.47.83,7.11-2.9"/>
  <path class="cls-5" d="m39.34,18.5c-.4-2.3,1.04-3.38,2.07-4.35.46-2.09,1.55-2.69,2.97-3.34,2.35-3.3,3.89-4.38,4.7-4.52,1.14-1.28,2.64-2.21,4.36-2.86,6.49-3.88,8.7-2.9,9.52-2.52.09.04.11.14.06.22-.53,1.01.87,2.94,1.03,4.26.86,1.36,1.19,2.61,1.22,4.61,2,1.93,1.95,4.86,2.1,5.79,2.52,3.96,1.11,6.03.96,7.06.16.64.25,1.24.29,1.8,0,0-.09,11.71-5.96,17.35"/>
  <path class="cls-9" d="m53.98,26.22c.3-1.51.86-3.16,1.86-4.59,2.66-3.78,2.73-7.69,2.1-10.49s.38-4.27.38-4.27"/>
  <path class="cls-6" d="m29.14,58.27l-9.57-12.2c-.78-1.54-1.16-3.13-.46-4.42.41-.74.45-1.63.07-2.38-.86-1.68-1.99-4.29-1.46-7.05.11-.56.04-1.14-.2-1.66-.8-1.73-.97-3.88-.66-7.14s-.05-6.44-.17-7.3c-.01-.1.08-.18.18-.15.84.29,4.05,1.24,6.68.24.61-.23,1.25-.35,1.9-.36,1.73-.02,4.03.32,5.02.63.47.15.96.26,1.45.32,1.62.2,4.61.58,6.33,1.37.67.31,1.41.43,2.15.39,1.66-.11,3.99-.08,6.37,2.3.28.28.63.48,1.02.57,1.47.34,4.37,1.63,8.51,7.79,0,0,5.91,12.66,5.91,20.07"/>
  <path class="cls-2" d="m47.68,47.18c-1.93-.98-4.64-3.05-6.69-7.33-3.54-7.41-6.39-4.34-10.54-7.46s-5.06-9.74-8.19-11.33"/>
  <path class="cls-7" d="m32.66,129.37c-4.42,1.16-6.97,1.19-8.28.82-.41-.12-.83-.17-1.26-.11-2.32.3-4.71.06-7.11-.61-.47-.13-.95-.24-1.44-.31-11.41-1.56-13.34-4.85-14.04-6.19-.09-.16-.01-.36.15-.44,1.57-.77,1.79-4.26,2.76-6.19.1-.21.18-.43.21-.66.28-2.26,1.02-4.02,2.61-6.23.27-.37.39-.82.36-1.27-.22-3.59,1.77-6.61,2.79-8.2.26-.4.43-.85.49-1.32.27-2.15.81-3.76,1.46-4.99,0,0,26.23-4.25,42.36,1.9"/>
  <path class="cls-11" d="m36.34,101.47c-1.99,1.61-4.43,4.05-6.02,7.27-3.08,6.23-6.35,5.95-9.05,7.6-2.7,1.64-7.31,7.74-9.83,7.24"/>
  <path class="cls-2" d="m33.21,21.44c-.28,1.12.14,5.78,1.07,7.04"/>
  <path class="cls-2" d="m46.35,26.75s1.68,8.81.37,11.42"/>
  <path class="cls-2" d="m19.88,29.32c1.03.93,5.5,1.77,5.5,1.77"/>
  <path class="cls-2" d="m34.28,38.78c-2.1.37-5.27-.89-7.23,0"/>
  <path class="cls-9" d="m47.2,13.79s2.27,4.41,5.28,5.45"/>
  <path class="cls-9" d="m63.74,11.84c-1.33.56-2.45,1.4-2.52,1.96"/>
  <path class="cls-9" d="m63.74,22.9s-6.22,2.2-6.08,4.07"/>
  <path class="cls-7" d="m6.38,117.66s5.37,1.87,7.94,0"/>
  <path class="cls-11" d="m25.49,117.37c1.1.94.09,6.86,1.58,8.09"/>
  <path class="cls-11" d="m23.45,107.68c-3.67.65-6-3.19-9.73-1.79"/>
  <path class="cls-11" d="m35.48,104.87c.8,1.97,4.98,4.58,3.96,6.45"/>
  <path class="cls-4" d="m79.36,154.32s-.85,2.88-.35,6.99c-.24.76-2.7,2.25-3.93,3.55-.22.23-.57.27-.85.11-.81-.48-2.3-1.52-7.97-2.53-1.21-.31-4.73-3.77-5.96-6.07"/>
  <path class="cls-4" d="m42.28,138.23s-5.05-.48-7.16-2.89c-2.11-2.41-2.89-9.1-3.93-10.59-4.07-2.77-1.34-6.97-1.25-8.36.26-3.04,3.38-7.15,4.57-8.49.19-.22.51-.28.78-.15,2.04.97,4.43.56,4.43.56l5.46.11"/>
  <path class="cls-4" d="m91.18,110.32c2.94,1.62,4.08,2.95,6.15,7.89,1.95,4.65,5.75,5.68,6.82,6.64.1.09.1.24,0,.33-3.46,3.38-4.44,7.94-4.82,9.75-1.77,9.53-7.8,9.18-7.8,9.18l-8.14-3.2"/>
  <path class="cls-4" d="m49.1,148.16c.51,3.54,5.08,8.24,6.69,9.33.18.13.42.14.61.04,5.31-2.71,10.09-.13,13.94.18,3.92.32,6.5-3.43,6.5-3.43l1.09-4.53"/>
  <path class="cls-4" d="m75.29,94.87s-.35-3.58-8.16-5.18c-7.51-1.53-9.79-3.42-12.48-6.18-.18-.18-.47-.18-.63,0-1.28,1.48-3.74,4.68-5.36,9.66-.74,2.1-4.94,6.87-10.4,8.55-.16.05-.28.19-.29.37-.08,1.6,3.02,7.63,2.52,12.91"/>
  <path class="cls-4" d="m89.76,127.86s3.83,2.99,2.14,12.05c-1.01,5.4.44,10.94-.48,12.06-1.62,2.01-2.45-.26-12.58,2.48-.53.14-1.09.13-1.62-.05-2.63-.86-10.94-3.55-15.5-4.49-1.01-.21-1.88-.85-2.39-1.75-1.32-2.37-1.57-6.25-2.81-7.06"/>
  <path class="cls-4" d="m43.19,112.56s-3.41,1.18-5.58,9.57c-.46,1.55-1.41,2.94-1.31,3.72s3.1,1.11,3.92,3.17,2.36,5.41,2.01,10.72,15.14,15.8,21.63,10.67"/>
  <path class="cls-4" d="m89.49,119.48s3.7-2.52,2.3-7.92c-.28-.93-3.16-5.42-4.03-8.68s-1.6-7.83-4.05-8.93-3.73,1.24-7.82.96-11.07-1.5-13.09.54"/>
  <path class="cls-4" d="m73.08,100.98s-.3-2.29-2.04-4.04c-1.89-.89-4.81,1.3-17.31-5.67-1.09-.3-3.17,2.27-5.17,8.12-.45,1.15-1.89,3.02-5.06,4.53-.89,1.03-1.27,4.27-.23,7.86.09,1.01-1.69,7.41-.4,10.25s7.37,5.19,8.41,8.1"/>
  <path class="cls-4" d="m80.8,136.09s2.74,6.89.65,7.67c-2,.68-7.24-3.54-14.92-.09-3.3.25-10.98-2.7-12.35-3.93s-2.49-7.79-3.5-12.4c-.7-4.24-3.61-5.89-4.86-10.41s4.73-7.49,6.45-11.05c.71-1.41,1.37-5.07,2.65-5.15s4.09,3.42,8.42,3.55"/>
  <path class="cls-4" d="m82.25,108.89s4.57-.41,5.33,3,2.07,11.04,5.25,12.75c.07.04.08.13.03.19-1.39,1.35-3.1,3.03-3.1,3.03,0,0-.93,7.9-8.96,8.23-3.31-.27-7.2.57-9.48,2.96-.07.07-.18.09-.27.03-.88-.62-3.08-3.02-9.87-3.71-2.97-.3-3.37-1.39-3.37-1.39,0,0-1.83-4.86-2.88-10.84-.44-2.75-1.85-7.09-.88-8.35s2.82-2.4,4.92-2.97"/>
  <path class="cls-4" d="m82.31,122.58s2.85,5.45-6.67,11.3c-.15.09-.33.09-.49.01-1.25-.65-3.78-2.83-9.23-1.5-.17.04-.35,0-.48-.13-1.97-1.84-12.33-14.82-5.98-19.06"/>
  <path class="cls-4" d="m58.01,112.12s6.48-9.31,7.78-11.93c.13-.26.41-.41.71-.37,1.65.23,5.73,1.82,8.99.86.26-.08.55-.06.8.07.64.33,1.74,1.25,2.07,3.75.02.19.15.36.32.44.88.41,3.51,1.72,3.48,2.52-.11,3.19,2.26,9.3,2.46,10.91s-3.33,3.47-3.88,8.17c-.02.16-.13.3-.28.36-1.89.74-6.74,2.56-8.09,2.68s-5.36.21-6.32-1.18-2.25-6.28-2.74-7.07c-.46-.73-.91-2.44-2.25-2.68-.22-.04-.42-.19-.48-.41-.33-1.13-.19-2.73-1.64-6.48.25-.59,2.35-1.36,2.53-1.31"/>
  <path class="cls-4" d="m74.9,107.11s-.96-1.89-1.61-4.09c-.03-.12-.14-.2-.26-.21-.85-.08-3.48.14-5.13-.41-.16-.05-.32,0-.42.11-.81.99-2.58,4.18-5.92,7.34-.42,1.41.45,6.72,3.46,10.73.39.49,2.87,3.2,3.82,4.43s4.39,2.97,7.82.91"/>
  <path class="cls-4" d="m78.05,117.62s3.57,1.84.88,6.5c-.06.1-.19.13-.29.06-.75-.53-2.18-1.78-3.17-1.02-1.08.83-2.91,2.41-4.36,2.29s-2.75-1.03-2.75-1.03"/>
  <path class="cls-4" d="m70.2,107.35s-3.04-3.21-4.8-.09c-.28.65-1.25,1.97-2.54,2.58-.28.13-.46.4-.49.71-.14,1.59.26,5.62,4.47,8.68"/>
  <path class="cls-4" d="m68.79,109.1s5.62-3.28,9.99-1.49c1,.46,2.89,1.55.03,8.68-.26.71-3.34,6.39-7.91,3.96"/>
  <path class="cls-4" d="m76.01,111.75s2.67.41,1.36,4.34c-.41.9-2.34,3.12-6.65,2.2-.69-.16-2.43-.53-3.4-.71-.29-.06-.53-.25-.65-.52-.42-.99-1.13-3.13-1.76-3.47-.76-.41-1.77-1.97-1.15-2.52s1,.17,1.18-.67.69-1.31,1.5-1.4"/>
  <path class="cls-4" d="m72.15,125.3s-1.49-3.4-3.83-5.12"/>
  <path class="cls-4" d="m70.87,123.01s-2.7-2.07-4.72-1.48"/>
  <path class="cls-4" d="m75.06,118.58s-1.21,1.7-6.43,1.23"/>
  <path class="cls-4" d="m69.01,109.99s-5.53,1.1.19,5.35"/>
  <path class="cls-4" d="m74.91,114.18s.69-3.55-.31-4.06c-.9-.45-2.07-.85-2.84-1.3-.19-.11-.42-.11-.6-.02-.8.41-2.48,1.75-2.31,3.88"/>
  <path class="cls-4" d="m74.02,116.09s1.43-2.03-2.57-4.75c-.1-.07-.24-.08-.35-.03-.77.36-2.94,2.12-.49,5.17"/>
  <path class="cls-4" d="m72.88,115.77s.42-1.23-1.92-2.17c-.35.24-1.42,1.3-.01,2.73"/>
  <path class="cls-4" d="m73.43,118.17s-3.19-2.09-2.23-.32"/>
  <path class="cls-4" d="m69.98,117.37c-.15-.15-.37-.83-1.14-1.24"/>
  <path class="cls-3" d="m54.99,74.48s-1.6,3.46-5.43,6.96c-.4.93.6,4.45.65,6.73,0,.4.29.75.69.83,1.14.24,3.34.51,9.33,4.4,1.35.74,7.4.45,10.42-.69"/>
  <path class="cls-3" d="m101.96,90.83s4.99,3.85,8.9,3.36c3.91-.49,10.12-6.2,12.29-6.72,5.98.84,6.95-5.49,8.01-6.89,2.27-3.12,2.81-9.69,2.83-11.99,0-.37-.24-.7-.59-.81-2.65-.82-4.49-3.25-4.49-3.25l-5.06-4.56"/>
  <path class="cls-3" d="m80.47,22.5c-4-.97-6.14-.67-12.09,2.26-5.6,2.76-9.91.5-11.66.5-.16,0-.29.14-.28.31.37,6.17-2.51,11.35-3.64,13.4-6.24,10.58-.46,15.4-.46,15.4l10.03,3.91"/>
  <path class="cls-3" d="m87.59,94.46c-3.38,2.93-11.4,3.5-13.76,3.17-.27-.04-.5-.22-.59-.48-2.6-7.11-9.07-8.74-12.83-11.73s-3.09-8.82-3.09-8.82l2.73-5.24"/>
  <path class="cls-3" d="m107.63,21.37s3.27-3.11,11.68,2.04,11.73,5.1,16.44,4.78c.31-.02.58.23.57.54-.05,2.5-.45,7.65-3.07,13.77-1.06,2.64-1.16,10.76,2.42,17.02.11.19.09.42-.04.59-1.25,1.59-9.03,4.68-12.92,10.13"/>
  <path class="cls-3" d="m67.31,40.41s-5.95-.42-11.87,9.65c-3.53,6-9.4,10.04-9.5,11.89-.17,3.3,2.43,1.85,9.4,13.1.36.59.89,1.05,1.52,1.34,3.1,1.42,12.88,5.96,17.79,8.97,1.08.66,2.41.8,3.61.37,3.16-1.13,6.57-4.61,8.37-4.31"/>
  <path class="cls-3" d="m122.26,65.62s2.12,4.04-2.8,13.88c-.85,1.87-1.14,4-1.87,4.66s-3.74-1.59-6.18-.33-6.6,3.13-10.65,8.49c-4.05,5.36-26.77,2.11-28.45-8.32"/>
  <path class="cls-3" d="m74.46,32.67s-1.29-5.56,4.43-9.5c1.02-.64,7.33-2.45,10.81-4.82s7.9-6.08,11.04-5.04,2.38,4.36,6.32,7.59c3.94,3.23,11.31,8.03,11.46,11.69"/>
  <path class="cls-3" d="m104.62,29.07s2.16-1.92,5.18-2.11c2.45.77,3.31,5.34,20.42,9.39,1.24.65,1.02,4.87-1.98,12.14-.54,1.48-.76,4.49.87,8.64-.03,1.74-2.36,5.16-6.26,7.68-.92.88-4.57,8.5-8.07,10.1s-10.97-1.35-14.32.53"/>
  <path class="cls-3" d="m68.69,55.9s-8.16,4.22-6.91,6.75c1.27,2.36,9.5,2.81,13.64,12.65,2.79,3.05,12.21,6.8,14.47,6.81s8.68-5.29,13.39-8.81c4.12-3.44,8.13-2.53,12.99-5.75s1.87-11.16,3.23-16.03c.51-1.95,2.93-6,1.83-7.16s-6.53-.23-10.57-3.81"/>
  <path class="cls-3" d="m89.76,28.77s-3.82-4.29-7.32-1.69-10.97,8.74-15.27,7.65c-.1-.02-.19.05-.18.15.15,2.47.32,5.53.32,5.53,0,0-5.66,8.32,1.38,15.49,3.22,2.57,6.09,6.69,6.18,10.91,0,.13.1.24.22.26,1.31.17,5.29-.25,12.03,4.91,2.95,2.25,4.2,1.56,4.2,1.56,0,0,5.67-3.07,11.54-7.86,2.67-2.24,7.52-5.17,7.68-7.2s-.59-4.69-2.03-7.03"/>
  <path class="cls-3" d="m78.44,41.74s-7.08,2.75-3.24,16.45c.06.21.22.37.43.43,1.67.45,5.77.54,9.63,6.46.12.19.33.3.55.29,3.31-.07,23.42-3.58,21.13-13.04"/>
  <path class="cls-3" d="m109.15,52.54s1.78-14.39,2.75-18c.1-.36-.04-.74-.34-.96-1.69-1.2-6.7-3.16-8.88-6.86-.18-.3-.45-.52-.79-.62-.85-.24-2.61-.3-4.97,1.81-.18.16-.43.21-.65.14-1.15-.36-4.6-1.36-5.24-.57-2.53,3.13-9.71,6.93-11.22,8.29s.17,6.15-3.2,11.09c-.12.17-.13.39-.04.58,1.11,2.32,4.02,8.2,5.15,9.46s4.7,4.78,6.72,4.28,7.21-4.06,8.32-4.39c1.02-.31,2.84-1.54,4.25-.63.24.15.54.17.77.02,1.22-.79,2.42-2.43,6.82-4.77.26-.77-1.01-3.31-1.22-3.4"/>
  <path class="cls-3" d="m97.91,33.36s2.43-.97,4.83-2.51c.13-.08.29-.08.41.02.84.65,3.05,3.11,5,3.98.18.08.3.27.29.47-.08,1.63-1.1,6.18-.66,12.04-.79,1.7-5.94,6.01-11.97,7.26-.76.13-5.25.59-7.12.96s-6.44-.92-7.86-5.82"/>
  <path class="cls-3" d="m86.39,40.66s-4.76-1.29-6.15,5.44c-.03.14.07.28.21.3,1.11.13,3.45.17,3.72,1.74.3,1.71.66,4.78,2.08,5.9s3.35,1.37,3.35,1.37"/>
  <path class="cls-3" d="m101.84,40.46s-2.4-7.92-7.86-9.95c-1.28-.42-3.9-.99-7.17,8.24-.35.9-2.23,8.94,3.93,10.53"/>
  <path class="cls-3" d="m101.99,37.59s5.41-.46,4.44,4.02c-.28.86-.48,2.94.18,4.62.14.36.09.78-.14,1.09-1.17,1.63-4.86,5.13-11.21,4.45"/>
  <path class="cls-3" d="m93.08,36.82s-2.77-1.89-4.81,2.97c-.37,1.2-.44,4.97,4.24,7.77.76.44,2.64,1.58,3.68,2.23.31.19.69.22,1.01.06,1.2-.58,3.6-2.01,4.45-1.8,1.03.26,3.23-.37,3.12-1.42s-1.05-.69-.52-1.65.45-1.84-.21-2.61"/>
  <path class="cls-3" d="m100.91,41.12s4.13,5.76-4.58,4.92"/>
  <path class="cls-3" d="m85.44,53.01s4.15-1.96,7.69-1.6"/>
  <path class="cls-3" d="m88.49,51.92s4.15.33,5.51,2.63"/>
  <path class="cls-3" d="m88.33,44.13s-.29,2.65,4.84,6.67"/>
  <path class="cls-3" d="m92.08,40.07s2.3-3.97,3.62-3.6c1.19.34,2.58.96,3.65,1.19.26.06.47.25.56.49.4,1.07.82,3.78-1.09,5.67"/>
  <path class="cls-3" d="m91.32,42.64s.37-3.15,6.25-2.33c.15.02.29.12.34.27.41,1,.93,4.53-3.81,5.35"/>
  <path class="cls-3" d="m92.62,43.32s.63-1.53,3.53-.42c.12.53.23,2.45-2.23,2.61"/>
  <path class="cls-3" d="m90.15,45.14s4.62.74,2.29,1.6"/>
  <path class="cls-3" d="m93.94,47.31c.26-.02,1.02-.47,2.06-.21"/>
  <path class="cls-8" d="m38.3,100.76s1.95,1.63,3.54,4.76c.53.42,2.97.32,4.44.66.26.06.53-.07.65-.32.35-.72.9-2.14,4.43-5.5.71-.78,1.56-4.86,1.34-7.06"/>
  <path class="cls-8" d="m56.88,72.11s3.33-2.7,3.69-5.38-2.25-7.76-2.21-9.29c1.57-3.85-2.34-5.53-3.06-6.46-1.62-2.02-5.75-3.46-7.22-3.84-.24-.06-.49.04-.62.26-.99,1.63-2.86,2.46-2.86,2.46l-3.8,2.63"/>
  <path class="cls-8" d="m9.24,75.3c-1.31,2.51-1.49,3.99-.62,8.43.82,4.18-1.38,6.69-1.68,7.86-.03.11.04.22.15.24,4.03.76,6.87,3.52,8,4.61,5.74,5.88,9.82,2.82,9.82,2.82l4.24-6.05"/>
  <path class="cls-8" d="m56.75,82.29c1.3,2.73.29,8.17-.32,9.69-.07.17-.23.3-.41.32-5.02.57-7.18,4.62-9.75,6.64-2.62,2.06-6.2.62-6.2.62l-2.9-2.68"/>
  <path class="cls-8" d="m13.18,57.01s-1.44-2.68,3.32-7.45c4.57-4.59,5.3-6.98,5.9-10.18.04-.21.25-.35.45-.29,1.6.44,4.84,1.55,8.33,4.29,1.52,1.13,6.72,2.53,11.36,1.16.14-.04.29,0,.38.12.81,1.09,1.46,6.78,4.3,10.27"/>
  <path class="cls-8" d="m18.5,86.99s-1.29,3.89,4.17,9.48c3.25,3.33,4.84,7.9,6.01,8.27,2.09.65,1.6-1.32,10.04-4.13.44-.15.83-.42,1.12-.79,1.45-1.84,6.05-7.61,8.82-10.4.61-.61.93-1.48.86-2.35-.18-2.29-1.84-5.13-1.34-6.28"/>
  <path class="cls-8" d="m44.15,54.47s2.96-.76,8.45,4.13c1.06.87,2.38,1.41,2.68,2.01s-1.67,2.23-1.27,4.07.88,4.91,3.63,8.48c2.75,3.57-3.24,18.19-10.24,17.61"/>
  <path class="cls-8" d="m14.75,80.96s-3.8-.05-5.35-4.5c-.24-.78-.32-5.29-1.25-7.99s-2.55-6.26-1.35-8.18,3.22-.87,5.97-2.97,7.11-6.23,9.49-5.73"/>
  <path class="cls-8" d="m17.62,60.28s-.87-1.75-.47-3.8c.92-1.51,4-1.33,9.54-12.08.63-.72,3.31.12,7.47,3.3.86.6,2.76,1.24,5.71.83,1.11.31,2.91,2.41,3.86,5.42.41.75,4.68,4.43,5.11,7.02s-2.75,7.09-2.12,9.63"/>
  <path class="cls-8" d="m28.7,88.6s1.31,6.13,3.15,5.7c1.73-.46,3.44-5.87,10.48-7.03,2.44-1.36,6.47-7.03,6.86-8.54s-1.91-6.65-3.37-10.36c-1.5-3.31-.23-5.83-1.47-9.6s-6.86-3.06-9.75-4.76c-1.16-.66-3.36-2.93-4.29-2.39s-1.27,4.32-4.27,6.43"/>
  <path class="cls-8" d="m14.87,70.13s-3.42,1.85-2.35,4.6,3.74,8.73,2.3,11.43c-.03.06,0,.13.07.14,1.62.3,3.61.69,3.61.69,0,0,4.38,5.13,10.2,1.61,2.21-1.73,5.35-2.97,8.08-2.34.08.02.17-.03.2-.11.33-.85.75-3.56,5.22-7.22,1.95-1.6,1.72-2.55,1.72-2.55,0,0-1-4.28-3.08-8.98-.98-2.14-2.04-5.85-3.31-6.29s-3.12-.37-4.87.2"/>
  <path class="cls-8" d="m21.27,79.79s.56,5.17,10.03,4.84c.15,0,.28-.09.35-.22.58-1.04,1.34-3.76,5.81-5.36.14-.05.25-.17.28-.32.52-2.21,1.72-16.19-4.76-16.21"/>
  <path class="cls-8" d="m33.49,61.08s-8.95-3.53-11.11-4.77c-.21-.12-.48-.09-.67.07-1.06.93-3.18,3.95-5.94,4.8-.22.07-.42.22-.53.42-.3.53-.64,1.69.31,3.61.07.14.06.32-.02.46-.43.7-1.67,2.85-1.27,3.4,1.58,2.2,2.79,7.6,3.4,8.83s3.98.89,6.58,3.94c.09.11.23.15.37.12,1.69-.36,5.96-1.34,6.97-1.89s3.88-2.35,3.91-3.79-1.37-5.47-1.4-6.26c-.02-.73-.51-2.14.32-2.93.14-.13.2-.33.15-.51-.3-.95-1.15-2.01-1.89-5.32-.45-.3-2.3.14-2.4.26"/>
  <path class="cls-8" d="m19.22,65.44s-.21-1.78-.79-3.63c-.03-.1,0-.2.08-.27.56-.46,2.52-1.53,3.42-2.69.08-.11.22-.16.35-.12,1.04.32,3.79,1.74,7.63,2.4.96.8,2.85,4.94,2.61,9.16-.04.53-.52,3.59-.61,4.9s-1.7,4.14-5.09,4.29"/>
  <path class="cls-8" d="m21.94,74.31s-1.65,2.96,2.44,4.99c.09.04.19,0,.23-.09.28-.72.7-2.27,1.76-2.2,1.15.08,3.19.34,4.15-.42s1.45-2.01,1.45-2.01"/>
  <path class="cls-8" d="m24.46,63.98s-5.51.31-7.75,3.62c-.49.79-1.31,2.44,4.07,6.12.52.38,5.37,2.94,7.45-.9"/>
  <path class="cls-8" d="m22.65,63.42s.63-3.68,3.35-2.3c.5.33,1.81.8,3,.63.26-.04.51.06.68.27.85,1.05,2.46,4.07.94,8.2"/>
  <path class="cls-8" d="m20.62,69.23s-1.69,1.54,1.08,3.69c.71.44,3.12,1.1,5.73-1.56.41-.43,1.47-1.51,2.06-2.09.18-.17.26-.42.21-.67-.17-.89-.68-2.73-.39-3.26.34-.64.32-2.22-.38-2.31s-.62.59-1.15.08-1.1-.6-1.72-.29"/>
  <path class="cls-8" d="m24.73,64.71s4.42-1.81,2.38,3.85"/>
  <path class="cls-8" d="m29.72,76.96s-.55-3.09.29-5.39"/>
  <path class="cls-8" d="m29.54,74.75s.93-2.71,2.64-3.25"/>
  <path class="cls-8" d="m24.5,73.59s1.66.63,5.12-2.14"/>
  <path class="cls-8" d="m22.54,70.42s-2.16-2.18-1.69-3c.42-.74,1.06-1.56,1.4-2.24.08-.16.24-.27.42-.3.76-.09,2.57.07,3.46,1.65"/>
  <path class="cls-8" d="m24.06,71.35s-1.97-.76-.43-4.54c.04-.1.13-.17.23-.19.72-.11,3.07.12,2.79,3.41"/>
  <path class="cls-8" d="m24.72,70.6s-.88-.67.33-2.42c.36,0,1.62.25,1.3,1.91"/>
  <path class="cls-8" d="m25.46,72.54s1.27-2.96,1.42-1.27"/>
  <path class="cls-8" d="m27.52,70.36c.04-.18-.13-.76.22-1.41"/>
  <text class="cls-1" transform="translate(210.14 134.91)"><tspan x="0" y="0">F</tspan><tspan class="cls-13" x="76.09" y="0">r</tspan><tspan class="cls-12" x="107.94" y="0">e</tspan><tspan x="137.47" y="0">ya</tspan></text>
</svg>