<?xml version="1.0" encoding="UTF-8"?>
<svg width="37px" height="29px" viewBox="0 0 37 29" version="1.1" xmlns="http://www.w3.org/2000/svg" xmlns:xlink="http://www.w3.org/1999/xlink">
    <!-- Generator: Sketch 58 (84663) - https://sketch.com -->
    <title>Mastercard-logo</title>
    <desc>Created with Sketch.</desc>
    <g id="MVP-desktop-/-mobile-" stroke="none" stroke-width="1" fill="none" fill-rule="evenodd">
        <g id="Artboard" transform="translate(-634.000000, -157.000000)">
            <g id="Mastercard-logo" transform="translate(634.000000, 157.000000)">
                <g>
                    <g id="Group" transform="translate(19.331242, 26.384957) scale(-1, 1) rotate(-180.000000) translate(-19.331242, -26.384957) translate(1.869452, 23.892101)" fill="#231F20" fill-rule="nonzero">
                        <path d="M34.2108529,0.712244531 L34.2108529,0.638883345 L34.2785619,0.638883345 C34.2935292,0.638883345 34.3063582,0.642444567 34.3156237,0.648142523 C34.3241764,0.65384048 34.3291655,0.663811903 34.3291655,0.67592006 C34.3291655,0.688028217 34.3241764,0.697287396 34.3156237,0.702985352 C34.3063582,0.709395553 34.2935292,0.712244531 34.2785619,0.712244531 L34.2108529,0.712244531 Z M34.2792746,0.763526137 C34.3141982,0.763526137 34.3412818,0.755691448 34.3605254,0.740022068 C34.379769,0.724352688 34.3890345,0.702985352 34.3890345,0.67592006 C34.3890345,0.653128235 34.3819072,0.634609877 34.3662272,0.619652742 C34.35126,0.605407852 34.3298782,0.596148673 34.3013692,0.59258745 L34.3911726,0.489311993 L34.3213255,0.489311993 L34.2379365,0.591875205 L34.2108529,0.591875205 L34.2108529,0.489311993 L34.1524094,0.489311993 L34.1524094,0.763526137 L34.2792746,0.763526137 Z M34.2614565,0.39458347 C34.2935292,0.39458347 34.3234637,0.400993671 34.3505473,0.413101828 C34.3783436,0.425209985 34.4025763,0.441591609 34.4232453,0.462246701 C34.4439144,0.482901792 34.4603071,0.507118106 34.4724234,0.535607887 C34.483827,0.563385424 34.4902416,0.593299695 34.4902416,0.625350698 C34.4902416,0.657401702 34.483827,0.687315973 34.4724234,0.715093509 C34.4603071,0.742871046 34.4439144,0.767799605 34.4232453,0.788454696 C34.4025763,0.809109787 34.3783436,0.825491412 34.3505473,0.837599569 C34.3234637,0.848995481 34.2935292,0.854693437 34.2614565,0.854693437 C34.2293838,0.854693437 34.1987366,0.848995481 34.1709403,0.837599569 C34.1424312,0.825491412 34.1174858,0.809109787 34.0968168,0.788454696 C34.0761477,0.767799605 34.059755,0.742871046 34.0483514,0.715093509 C34.036235,0.687315973 34.0305332,0.657401702 34.0305332,0.625350698 C34.0305332,0.593299695 34.036235,0.563385424 34.0483514,0.535607887 C34.059755,0.507118106 34.0761477,0.482901792 34.0968168,0.462246701 C34.1174858,0.441591609 34.1424312,0.425209985 34.1709403,0.413101828 C34.1987366,0.400993671 34.2293838,0.39458347 34.2614565,0.39458347 M34.2614565,0.920932179 C34.3035073,0.920932179 34.3419945,0.913097489 34.3790563,0.897428109 C34.4154053,0.882470974 34.4467653,0.861103638 34.4745616,0.834038346 C34.5016452,0.807685298 34.523027,0.776346539 34.5387069,0.740022068 C34.5543869,0.704409841 34.5622269,0.665948637 34.5622269,0.625350698 C34.5622269,0.58475276 34.5543869,0.546291555 34.5387069,0.510679329 C34.523027,0.475067102 34.5016452,0.443728343 34.4745616,0.416663051 C34.4467653,0.390310003 34.4154053,0.368942667 34.3790563,0.353273287 C34.3419945,0.337603908 34.3035073,0.329769218 34.2614565,0.329769218 C34.2186929,0.329769218 34.179493,0.337603908 34.1424312,0.353273287 C34.1053695,0.368942667 34.0732968,0.390310003 34.0462132,0.416663051 C34.0191296,0.443728343 33.9977478,0.475067102 33.9820679,0.510679329 C33.9663879,0.546291555 33.9585479,0.58475276 33.9585479,0.625350698 C33.9585479,0.665948637 33.9663879,0.704409841 33.9820679,0.740022068 C33.9977478,0.776346539 34.0191296,0.807685298 34.0462132,0.834038346 C34.0732968,0.861103638 34.1053695,0.882470974 34.1424312,0.897428109 C34.179493,0.913097489 34.2186929,0.920932179 34.2614565,0.920932179 M6.4929348,1.97719082 C6.4929348,2.4999783 6.83575605,2.92946176 7.39595877,2.92946176 C7.93121607,2.92946176 8.29256821,2.51849666 8.29256821,1.97719082 C8.29256821,1.43588497 7.93121607,1.02491988 7.39595877,1.02491988 C6.83575605,1.02491988 6.4929348,1.45440333 6.4929348,1.97719082 M8.90266175,1.97719082 L8.90266175,3.4643574 L8.25550645,3.4643574 L8.25550645,3.10324942 C8.05024133,3.37105337 7.73878003,3.53914308 7.31542072,3.53914308 C6.48081845,3.53914308 5.82653589,2.8853026 5.82653589,1.97719082 C5.82653589,1.0683668 6.48081845,0.415238562 7.31542072,0.415238562 C7.73878003,0.415238562 8.05024133,0.583328271 8.25550645,0.851132215 L8.25550645,0.490024238 L8.90266175,0.490024238 L8.90266175,1.97719082 Z M30.7719495,1.97719082 C30.7719495,2.4999783 31.1147708,2.92946176 31.6749735,2.92946176 C32.2109435,2.92946176 32.5715829,2.51849666 32.5715829,1.97719082 C32.5715829,1.43588497 32.2109435,1.02491988 31.6749735,1.02491988 C31.1147708,1.02491988 30.7719495,1.45440333 30.7719495,1.97719082 M33.1823892,1.97719082 L33.1823892,4.65879148 L32.5345211,4.65879148 L32.5345211,3.10324942 C32.329256,3.37105337 32.0177947,3.53914308 31.5944354,3.53914308 C30.7598332,3.53914308 30.1055506,2.8853026 30.1055506,1.97719082 C30.1055506,1.0683668 30.7598332,0.415238562 31.5944354,0.415238562 C32.0177947,0.415238562 32.329256,0.583328271 32.5345211,0.851132215 L32.5345211,0.490024237 L33.1823892,0.490024237 L33.1823892,1.97719082 Z M16.9357977,2.96008827 C17.3527424,2.96008827 17.6207274,2.69869453 17.6891491,2.23858456 L16.1446717,2.23858456 C16.2138061,2.66806801 16.4746639,2.96008827 16.9357977,2.96008827 M16.9486267,3.53914308 C16.07625,3.53914308 15.4661564,2.9045332 15.4661564,1.97719082 C15.4661564,1.03133008 16.1011954,0.415238562 16.992103,0.415238562 C17.4404077,0.415238562 17.850938,0.527060953 18.2122901,0.831901612 L17.895127,1.31124218 C17.6456729,1.11252596 17.327797,0.999991322 17.0291648,0.999991322 C16.61222,0.999991322 16.232337,1.19300959 16.1389699,1.72861748 L18.3491335,1.72861748 C18.3555481,1.80910111 18.3619626,1.89029699 18.3619626,1.97719082 C18.3555481,2.9045332 17.7825163,3.53914308 16.9486267,3.53914308 M24.7629557,1.97719082 C24.7629557,2.4999783 25.105777,2.92946176 25.6659797,2.92946176 C26.201237,2.92946176 26.5625891,2.51849666 26.5625891,1.97719082 C26.5625891,1.43588497 26.201237,1.02491988 25.6659797,1.02491988 C25.105777,1.02491988 24.7629557,1.45440333 24.7629557,1.97719082 M27.1726827,1.97719082 L27.1726827,3.4643574 L26.5255274,3.4643574 L26.5255274,3.10324942 C26.3195495,3.37105337 26.0088009,3.53914308 25.5854416,3.53914308 C24.7508394,3.53914308 24.0965568,2.8853026 24.0965568,1.97719082 C24.0965568,1.0683668 24.7508394,0.415238562 25.5854416,0.415238562 C26.0088009,0.415238562 26.3195495,0.583328271 26.5255274,0.851132215 L26.5255274,0.490024238 L27.1726827,0.490024238 L27.1726827,1.97719082 Z M21.1080963,1.97719082 C21.1080963,1.074777 21.7367207,0.415238562 22.69605,0.415238562 C23.1443547,0.415238562 23.442987,0.514952796 23.7665646,0.769936338 L23.455816,1.29272382 C23.2127764,1.11822391 22.9576205,1.02491988 22.6768064,1.02491988 C22.16008,1.03133008 21.780197,1.40454622 21.780197,1.97719082 C21.780197,2.54983542 22.16008,2.92305156 22.6768064,2.92946176 C22.9576205,2.92946176 23.2127764,2.83615772 23.455816,2.66165781 L23.7665646,3.1844453 C23.442987,3.43942884 23.1443547,3.53914308 22.69605,3.53914308 C21.7367207,3.53914308 21.1080963,2.87960464 21.1080963,1.97719082 M29.4519808,3.53914308 C29.0785123,3.53914308 28.8354727,3.36464317 28.6672693,3.10324942 L28.6672693,3.4643574 L28.0258158,3.4643574 L28.0258158,0.490024237 L28.6736838,0.490024237 L28.6736838,2.15738869 C28.6736838,2.64954966 28.8853635,2.92305156 29.3087228,2.92305156 C29.4398644,2.92305156 29.5767078,2.9045332 29.7135512,2.84826588 L29.9131145,3.4579472 C29.7698566,3.51421452 29.5831224,3.53914308 29.4519808,3.53914308 M12.1035147,3.22789222 C11.7920534,3.43301864 11.3629923,3.53914308 10.8897421,3.53914308 C10.1356779,3.53914308 9.65031143,3.1780351 9.65031143,2.58687214 C9.65031143,2.10183361 10.0116636,1.80269091 10.6773497,1.70938687 L10.9831092,1.66593996 C11.3380468,1.61608284 11.5055375,1.52277881 11.5055375,1.3546891 C11.5055375,1.12463411 11.2689124,0.993581121 10.8270222,0.993581121 C10.3787175,0.993581121 10.0551399,1.13674227 9.83704567,1.30483198 L9.5319989,0.801275098 C9.8869365,0.539881355 10.3352412,0.415238562 10.8206077,0.415238562 C11.6801554,0.415238562 12.1783509,0.819793455 12.1783509,1.38602786 C12.1783509,1.90881534 11.7863516,2.18231724 11.1384835,2.27562128 L10.8334368,2.31978044 C10.5533354,2.35681715 10.3288267,2.41237223 10.3288267,2.6118007 C10.3288267,2.82974752 10.5405063,2.96008827 10.8954439,2.96008827 C11.2753269,2.96008827 11.6430936,2.81692712 11.8234133,2.70510473 L12.1035147,3.22789222 Z M20.4538137,3.53914308 C20.0803452,3.53914308 19.8373056,3.36464317 19.669815,3.10324942 L19.669815,3.4643574 L19.0283615,3.4643574 L19.0283615,0.490024237 L19.6755168,0.490024237 L19.6755168,2.15738869 C19.6755168,2.64954966 19.8871965,2.92305156 20.3105558,2.92305156 C20.4416974,2.92305156 20.5785408,2.9045332 20.7153842,2.84826588 L20.9149475,3.4579472 C20.7716895,3.51421452 20.5849553,3.53914308 20.4538137,3.53914308 M14.9308991,3.4643574 L13.8725009,3.4643574 L13.8725009,4.36677122 L13.2182183,4.36677122 L13.2182183,3.4643574 L12.6145393,3.4643574 L12.6145393,2.87319444 L13.2182183,2.87319444 L13.2182183,1.51636861 C13.2182183,0.826203656 13.4862033,0.415238562 14.2516712,0.415238562 C14.5324852,0.415238562 14.8560629,0.502132395 15.061328,0.645293545 L14.8745938,1.19941979 C14.681445,1.0875974 14.4697653,1.03133008 14.301562,1.03133008 C13.9779843,1.03133008 13.8725009,1.23075855 13.8725009,1.52918901 L13.8725009,2.87319444 L14.9308991,2.87319444 L14.9308991,3.4643574 Z M5.25421683,0.490024237 L5.25421683,2.35681715 C5.25421683,3.05980251 4.80591211,3.53273287 4.08320784,3.53914308 C3.70332483,3.54555328 3.31132547,3.42732068 3.03692592,3.00994539 C2.83166081,3.33971461 2.50808316,3.53914308 2.0533639,3.53914308 C1.73548806,3.53914308 1.42473948,3.44583904 1.18169988,3.09755147 L1.18169988,3.4643574 L0.533831851,3.4643574 L0.533831851,0.490024237 L1.18740169,0.490024237 L1.18740169,2.13887033 C1.18740169,2.65524761 1.47391758,2.92946176 1.91652049,2.92946176 C2.34629433,2.92946176 2.56367579,2.64954966 2.56367579,2.14528053 L2.56367579,0.490024237 L3.21795835,0.490024237 L3.21795835,2.13887033 C3.21795835,2.65524761 3.51659059,2.92946176 3.94636443,2.92946176 C4.38825462,2.92946176 4.59993427,2.64954966 4.59993427,2.14528053 L4.59993427,0.490024237 L5.25421683,0.490024237 Z" id="Shape"></path>
                    </g>
                    <g id="Group" transform="translate(35.766706, 18.283892) scale(-1, 1) rotate(-180.000000) translate(-35.766706, -18.283892) translate(35.053980, 17.783892)" fill="#F79410" fill-rule="nonzero">
                        <path d="M1.48109012,-5.55111512e-17 L1.48109012,0.61 L1.36109012,0.61 L1.22222219,0.191 L1.08410899,0.61 L0.96335427,0.61 L0.96335427,-5.55111512e-17 L1.04863729,-5.55111512e-17 L1.04863729,0.46 L1.17844861,0.063 L1.2667505,0.063 L1.39656182,0.461 L1.39656182,-5.55111512e-17 L1.48109012,-5.55111512e-17 Z M0.719580686,5.55111512e-17 L0.719580686,0.506 L0.87354295,0.506 L0.87354295,0.609 L0.481090119,0.609 L0.481090119,0.506 L0.635052384,0.506 L0.635052384,5.55111512e-17 L0.719580686,5.55111512e-17 Z" id="Shape"></path>
                    </g>
                    <polygon id="Path" fill="#FF5F00" fill-rule="nonzero" points="23.5933438 20.365066 13.7850923 20.365066 13.7850923 2.74983428 23.5933438 2.74983428"></polygon>
                    <g id="Group" transform="translate(9.780712, 11.556026) scale(-1, 1) rotate(-180.000000) translate(-9.780712, -11.556026) translate(0.158910, 0.160113)" fill="#EB001B" fill-rule="nonzero">
                        <path d="M14.2545221,11.3959125 C14.2545221,14.9692433 15.9287157,18.1522641 18.5358678,20.2035284 C16.6293254,21.7035154 14.2231621,22.5988067 11.60817,22.5988067 C5.41743111,22.5988067 0.399126618,17.5831807 0.399126618,11.3959125 C0.399126618,5.20864426 5.41743111,0.193018268 11.60817,0.193018268 C14.2231621,0.193018268 16.6293254,1.08830964 18.5358678,2.58829663 C15.9287157,4.63956088 14.2545221,7.82258169 14.2545221,11.3959125" id="Path"></path>
                    </g>
                    <g id="Group" transform="translate(27.556101, 11.556026) scale(-1, 1) rotate(-180.000000) translate(-27.556101, -11.556026) translate(18.290662, 0.160113)" fill="#F79E1B" fill-rule="nonzero">
                        <path d="M18.5308787,11.3959125 C18.5308787,5.20864426 13.5125742,0.193018268 7.32183526,0.193018268 C4.70684318,0.193018268 2.30067986,1.08830964 0.393424809,2.58829663 C3.00128962,4.63956088 4.67548324,7.82258169 4.67548324,11.3959125 C4.67548324,14.9692433 3.00128962,18.1522641 0.393424809,20.2035284 C2.30067986,21.7035154 4.70684318,22.5988067 7.32183526,22.5988067 C13.5125742,22.5988067 18.5308787,17.5831807 18.5308787,11.3959125" id="Path"></path>
                    </g>
                </g>
            </g>
        </g>
    </g>
</svg>